
<svg  className="bgbottom  absolute bottom-0 -left-2 w-24 h-24 z-0 " viewBox="0 0 147 180" fill="none" xmlns="http://www.w3.org/2000/svg">
<g opacity="0.5">
<path d="M12.03 165C12.03 163.03 12.418 161.08 13.1718 159.26C13.9256 157.44 15.0305 155.786 16.4234 154.393C17.8163 153.001 19.4699 151.896 21.2898 151.142C23.1097 150.388 25.0602 150 27.03 150C28.9998 150 30.9504 150.388 32.7703 151.142C34.5902 151.896 36.2437 153.001 37.6366 154.393C39.0295 155.786 40.1344 157.44 40.8882 159.26C41.642 161.08 42.03 163.03 42.03 165C42.03 168.978 40.4497 172.794 37.6366 175.607C34.8236 178.42 31.0083 180 27.03 180C23.0518 180 19.2365 178.42 16.4234 175.607C13.6104 172.794 12.03 168.978 12.03 165ZM27.75 144C32.79 144 35.31 140.4 36.06 134.595C36.66 126.585 39.03 122.37 48.765 115.695C58.86 108.57 64.5 99.345 64.5 85.905C64.5 66.03 50.7 52.5 30.57 52.5C15.27 52.5 3.69002 59.88 -0.92998 71.85C-2.33003 75.1192 -3.03495 78.6438 -2.99998 82.2C-2.99998 88.095 0.0450203 91.8 5.17502 91.8C9.25502 91.8 12 89.595 13.635 84.15C16.005 75.27 21.51 70.425 29.745 70.425C38.895 70.425 45.195 77.115 45.195 86.685C45.195 95.13 42.075 99.96 32.865 106.56C23.58 113.055 18.975 120.27 18.975 131.16V132.825C18.975 139.245 22.095 144 27.75 144Z" fill="#21AD80"/>
<path fill-rule="evenodd" clip-rule="evenodd" d="M61.091 37.6907L47.276 23.5307L58.001 13.0607L67.331 22.6157L80.681 22.4507C86.4597 22.3823 92.1938 23.4701 97.5461 25.6501C102.898 27.83 107.761 31.0581 111.847 35.1446C115.934 39.2311 119.162 44.0934 121.342 49.4457C123.522 54.7979 124.609 60.532 124.541 66.3107L124.391 79.6607L133.931 88.9907C138.063 93.0283 141.346 97.851 143.588 103.175C145.829 108.5 146.984 114.219 146.984 119.996C146.984 125.773 145.829 131.492 143.588 136.816C141.346 142.14 138.063 146.963 133.931 151.001L124.376 160.331L124.541 173.681C124.609 179.459 123.522 185.194 121.342 190.546C119.162 195.898 115.934 200.76 111.847 204.847C107.761 208.933 102.898 212.161 97.5461 214.341C92.1938 216.521 86.4597 217.609 80.681 217.541L67.331 217.391L58.001 226.931C53.9634 231.063 49.1407 234.346 43.8163 236.587C38.4918 238.829 32.773 239.984 26.996 239.984C21.2189 239.984 15.5001 238.829 10.1757 236.587C4.85123 234.346 0.0285339 231.063 -4.00902 226.931L-13.339 217.376L-26.689 217.541C-32.4678 217.609 -38.2019 216.521 -43.5541 214.341C-48.9063 212.161 -53.7687 208.933 -57.8551 204.847C-61.9416 200.76 -65.1697 195.898 -67.3497 190.546C-69.5296 185.194 -70.6174 179.459 -70.549 173.681L-70.399 160.331L-79.939 151.001C-84.0709 146.963 -87.3541 142.14 -89.5957 136.816C-91.8372 131.492 -92.9919 125.773 -92.9919 119.996C-92.9919 114.219 -91.8372 108.5 -89.5957 103.175C-87.3541 97.851 -84.0709 93.0283 -79.939 88.9907L-70.384 79.6607L-70.549 66.3107C-70.6174 60.532 -69.5296 54.7979 -67.3497 49.4457C-65.1697 44.0934 -61.9416 39.2311 -57.8551 35.1446C-53.7687 31.0581 -48.9063 27.83 -43.5541 25.6501C-38.2019 23.4701 -32.4678 22.3823 -26.689 22.4507L-13.339 22.6007L-4.00902 13.0607C0.0285339 8.92885 4.85123 5.64565 10.1757 3.40409C15.5001 1.16252 21.2189 0.0078125 26.996 0.0078125C32.773 0.0078125 38.4918 1.16252 43.8163 3.40409C49.1407 5.64565 53.9634 8.92885 58.001 13.0607L47.276 23.5307C44.6354 20.8275 41.481 18.6795 37.9983 17.213C34.5156 15.7464 30.7749 14.9909 26.996 14.9909C23.2171 14.9909 19.4763 15.7464 15.9936 17.213C12.5109 18.6795 9.35656 20.8275 6.71597 23.5307L-7.08402 37.6907L-26.884 37.4507C-30.6614 37.4085 -34.409 38.1216 -37.9069 39.5481C-41.4047 40.9747 -44.5822 43.0859 -47.2527 45.7577C-49.9231 48.4296 -52.0327 51.6082 -53.4574 55.1068C-54.8821 58.6054 -55.5932 62.3534 -55.549 66.1307L-55.309 85.9007L-69.469 99.7157C-72.1722 102.356 -74.3202 105.511 -75.7868 108.993C-77.2533 112.476 -78.0088 116.217 -78.0088 119.996C-78.0088 123.775 -77.2533 127.515 -75.7868 130.998C-74.3202 134.481 -72.1722 137.635 -69.469 140.276L-55.309 154.076L-55.549 173.876C-55.5912 177.653 -54.8781 181.401 -53.4516 184.899C-52.0251 188.396 -49.9139 191.574 -47.242 194.244C-44.5702 196.915 -41.3916 199.024 -37.893 200.449C-34.3944 201.874 -30.6463 202.585 -26.869 202.541L-7.09902 202.301L6.71597 216.461C9.35656 219.164 12.5109 221.312 15.9936 222.778C19.4763 224.245 23.2171 225.001 26.996 225.001C30.7749 225.001 34.5156 224.245 37.9983 222.778C41.481 221.312 44.6354 219.164 47.276 216.461L61.076 202.301L80.876 202.541C84.6533 202.583 88.401 201.87 91.8988 200.443C95.3967 199.017 98.5742 196.906 101.245 194.234C103.915 191.562 106.025 188.383 107.449 184.885C108.874 181.386 109.585 177.638 109.541 173.861L109.301 154.091L123.461 140.276C126.164 137.635 128.312 134.481 129.779 130.998C131.245 127.515 132.001 123.775 132.001 119.996C132.001 116.217 131.245 112.476 129.779 108.993C128.312 105.511 126.164 102.356 123.461 99.7157L109.301 85.9157L109.541 66.1157C109.583 62.3384 108.87 58.5907 107.444 55.0929C106.017 51.595 103.906 48.4175 101.234 45.7471C98.5621 43.0766 95.3835 40.9671 91.8849 39.5424C88.3863 38.1177 84.6383 37.4065 80.861 37.4507L61.091 37.6907Z" fill="#21AD80"/>
</g>
</svg>
