<svg className="Front  w-72 h-69 z-0 mt-12 mb-5" viewBox="0 0 293 241" fill="none" xmlns="http://www.w3.org/2000/svg">
<path d="M291.478 228.667H11.5771V240.15H291.478V228.667Z" fill="#1B70E5"/>
<path opacity="0.5" d="M291.478 228.667H11.5771V240.15H291.478V228.667Z" fill="white"/>
<path d="M77.5834 105.159C76.2143 105.606 74.8703 106.126 73.5571 106.717C74.2748 106.193 74.9925 105.647 75.7102 105.095C78.9055 102.525 81.9466 99.7687 84.8177 96.8411C81.4486 100.114 77.8511 103.143 74.0523 105.906C74.576 104.996 75.0364 104.051 75.4303 103.078C76.148 101.291 76.2771 99.4894 74.5762 98.5349C72.4734 97.3578 69.9327 99.1162 70.6002 102.123C71.0076 103.802 71.8014 105.363 72.9183 106.681C70.4393 108.397 67.85 109.948 65.1672 111.324L64.916 111.453C65.4832 110.471 65.9843 109.452 66.416 108.403C67.0907 106.623 67.2629 104.815 65.5548 103.867C63.4519 102.683 60.9113 104.449 61.5859 107.456C61.9865 109.112 62.7624 110.654 63.8538 111.963C60.6314 113.549 57.3013 114.898 53.9855 116.362L53.5047 116.578C54.1518 115.883 54.7535 115.147 55.3061 114.374C56.3826 112.795 56.964 111.087 55.5286 109.76C53.7631 108.123 50.8707 109.243 50.8277 112.343C50.8296 114.055 51.2275 115.742 51.9903 117.274C48.8876 118.724 45.9396 120.484 43.1914 122.527L43.1053 122.599C43.477 122.01 43.8172 121.401 44.1244 120.776C44.9354 119.047 45.2368 117.267 43.6005 116.183C43.268 115.954 42.888 115.804 42.489 115.743C42.09 115.683 41.6825 115.713 41.2971 115.833C40.9116 115.952 40.5583 116.158 40.2636 116.433C39.9689 116.709 39.7406 117.048 39.5958 117.425C39.38 117.088 39.0873 116.808 38.7417 116.606C37.0982 115.659 35.4834 116.685 34.0982 118.135C33.7394 118.515 33.3805 118.925 33.0719 119.326C34.1404 116.361 35.4836 113.502 37.0838 110.786C38.6078 111.452 40.251 111.801 41.9139 111.812C45.1866 111.812 46.5646 109.085 44.9569 107.391C43.6507 106.02 41.8134 106.544 40.0766 107.549C39.5047 107.883 38.9513 108.247 38.4187 108.64C40.0825 106.134 41.9706 103.785 44.0598 101.621C45.4288 102.728 47.0197 103.529 48.7248 103.968C51.9042 104.75 53.8994 102.446 52.7511 100.415C51.8181 98.7645 49.8803 98.8291 47.9784 99.3817C47.0681 99.654 46.1763 99.9849 45.3086 100.372C46.177 99.5253 47.0741 98.7143 47.9856 97.9105C49.177 96.8913 50.4114 95.9081 51.6674 94.9464C53.0178 96.024 54.5806 96.8042 56.2535 97.2358C59.4328 98.0181 61.428 95.7143 60.2797 93.6832C59.3467 92.0325 57.4089 92.0971 55.4999 92.6498C55.0549 92.7789 54.6028 92.9368 54.165 93.1019C55.8228 91.9177 57.5022 90.7622 59.1888 89.6139L60.7462 88.5445C62.1496 89.72 63.7971 90.5683 65.5691 91.0278C68.7485 91.8101 70.7509 89.5062 69.6026 87.4752C68.6624 85.8245 66.7318 85.8891 64.8227 86.4417C64.0715 86.6714 63.3323 86.9369 62.6051 87.2383L63.5668 86.5206C64.1553 86.0972 64.7438 85.6666 65.3179 85.2144C66.0356 84.6762 66.7175 84.0805 67.4136 83.5063C67.8155 83.1905 68.1959 82.8532 68.5763 82.5087C69.9853 83.6967 71.6434 84.5528 73.4279 85.0135C76.6073 85.7958 78.6025 83.492 77.4542 81.4609C76.5212 79.8102 74.5834 79.8748 72.6815 80.4274C71.6149 80.757 70.5699 81.1524 69.5523 81.6116C70.8514 80.4059 72.1073 79.1499 73.2987 77.8437C73.3777 77.7504 73.4494 77.6571 73.5356 77.571C74.0451 77.004 74.5475 76.4298 75.0355 75.8342C75.5236 75.2385 76.1551 74.4562 76.6862 73.7385C78.8672 70.8758 80.6624 67.739 82.0259 64.4084C80.597 67.6994 78.7414 70.788 76.5068 73.5949C74.2967 76.4136 71.8291 79.0205 69.1361 81.3819L68.8418 81.6331C69.4536 80.5913 69.9954 79.51 70.4638 78.3963C71.1456 76.6164 71.3107 74.8078 69.6026 73.8605C67.5069 72.6763 64.9591 74.4418 65.6337 77.449C66.0671 79.2296 66.9322 80.8762 68.1528 82.2432L67.5213 82.7886L66.8036 83.4058C66.3873 83.7432 65.9567 84.0661 65.5261 84.3891C65.2964 84.5613 65.0739 84.7408 64.8084 84.913C64.1983 85.3652 63.5811 85.8029 62.9567 86.2336L62.0596 86.8436L61.0405 87.5613C61.6362 86.5446 62.159 85.4869 62.6051 84.3963C63.2869 82.6092 63.4519 80.8078 61.751 79.8604C59.6482 78.6762 57.1003 80.4418 57.775 83.4489C58.191 85.1762 59.0155 86.7785 60.1792 88.1211L59.4616 88.6091L56.6697 90.4393L56.1171 90.7981L54.5597 91.8388L53.8851 92.2909C53.1674 92.7861 52.4497 93.2885 51.732 93.8052C52.3086 92.7724 52.8123 91.7004 53.2391 90.5971C53.9568 88.8173 54.086 87.0087 52.3851 86.0613C50.2822 84.8771 47.7416 86.6426 48.4162 89.6498C48.8378 91.4003 49.6804 93.0213 50.8707 94.3722C49.6507 95.2693 48.4449 96.188 47.2823 97.1497C46.4282 97.8674 45.5885 98.5851 44.7632 99.3602C45.1227 98.695 45.4438 98.0096 45.7249 97.3076C46.3995 95.5205 46.5718 93.7191 44.8636 92.7718C42.7608 91.5876 40.2202 93.3531 40.8948 96.3602C41.2953 98.0166 42.0713 99.5587 43.1627 100.867C40.8382 103.177 38.7446 105.708 36.9116 108.425C37.1197 107.641 37.2779 106.845 37.3853 106.042C37.6149 104.147 37.3422 102.367 35.4547 101.851C33.1293 101.212 31.0911 103.537 32.4762 106.307C33.273 107.833 34.413 109.152 35.8063 110.162C33.9984 113.114 32.4886 116.24 31.2992 119.492C31.2682 118.811 31.2011 118.133 31.0983 117.46C30.7753 115.573 30.0145 113.944 28.0552 113.98C25.6438 114.03 24.3447 116.85 26.4619 119.104C27.5911 120.281 28.9692 121.191 30.4954 121.767C29.6792 124.277 29.0153 126.834 28.5074 129.424C28.4212 129.834 28.3567 130.243 28.2777 130.652C28.1916 130.731 28.1055 130.81 28.0265 130.896C27.9404 130.544 27.8399 130.178 27.7251 129.841C27.1222 128.032 26.1174 126.532 24.1868 126.877C21.8185 127.293 20.9644 130.264 23.4046 132.18C24.6447 133.127 26.0743 133.795 27.5959 134.14C27.5959 134.211 27.6533 134.276 27.6892 134.348C27.4237 136.293 27.2227 138.252 27.1007 140.219C27.0074 141.654 26.9571 143.154 26.9284 144.625C24.8758 144.625 23.4261 146.879 24.84 149.319C25.4366 150.331 26.2011 151.234 27.1007 151.989C27.2729 154.752 27.5457 157.515 27.9117 160.257C27.6214 159.988 27.2663 159.8 26.8812 159.711C26.4961 159.621 26.0943 159.634 25.7155 159.747C24.4237 160.099 23.8424 161.139 23.6342 162.417C23.1745 162.893 22.9172 163.528 22.9165 164.19C21.9548 162.754 21.0433 161.319 20.1606 159.804C21.5081 158.771 22.6252 157.469 23.4404 155.979C24.9835 153.108 23.2395 150.589 20.9931 151.199C19.1558 151.702 18.7539 153.568 18.84 155.57C18.8687 156.33 18.9406 157.087 19.0553 157.838L18.108 156.173C17.3185 154.738 16.6726 153.302 15.8975 151.867C15.7109 151.515 15.5458 151.149 15.3951 150.79C16.9071 150.029 18.2441 148.96 19.3209 147.654C21.3807 145.113 20.139 142.321 17.8137 142.501C15.919 142.652 15.1654 144.41 14.8496 146.391C14.7266 147.254 14.6499 148.124 14.62 148.996L13.9453 147.439C12.5085 143.906 11.326 140.274 10.4071 136.573C12.1186 135.966 13.6731 134.986 14.9573 133.702C17.2611 131.369 16.3066 128.477 13.974 128.42C12.0793 128.377 11.1535 130.049 10.6368 132.008C10.3835 133.048 10.1942 134.103 10.0698 135.166C9.5674 133.042 9.13678 130.889 8.77794 128.707C8.53392 127.372 8.37603 126.015 8.21096 124.666C10.0505 124.302 11.7831 123.524 13.2779 122.391C15.8616 120.382 15.2946 117.367 12.9836 117.03C11.1104 116.736 9.97649 118.279 9.21573 120.137C8.77033 121.31 8.39644 122.508 8.09612 123.726C7.95259 122.161 7.78752 120.59 7.71575 119.018C7.50045 115.773 7.50045 112.517 7.71575 109.272C7.38812 112.514 7.27544 115.775 7.37843 119.032C7.37843 120.532 7.50762 122.025 7.60092 123.525C7.19091 122.505 6.71132 121.515 6.16553 120.561C5.18946 118.917 3.88326 117.69 2.07466 118.408C-0.157368 119.326 -0.351145 122.413 2.44787 123.762C4.08953 124.516 5.89034 124.858 7.69422 124.759C7.8234 126.102 7.93823 127.436 8.13919 128.764C8.41909 130.917 8.77794 132.984 9.20138 135.073C8.7421 134.273 8.23147 133.503 7.67268 132.769C6.48849 131.269 5.03874 130.207 3.36651 131.176C1.27802 132.374 1.47898 135.482 4.42871 136.436C6.09783 136.955 7.86568 137.073 9.58893 136.781C10.4078 140.523 11.4845 144.204 12.8114 147.797L13.2348 148.874C12.8551 148.371 12.4453 147.892 12.0076 147.439C10.6798 146.061 9.13678 145.149 7.53632 146.29C5.57702 147.726 6.10093 150.74 9.11525 151.415C10.7788 151.751 12.4975 151.702 14.1391 151.271C14.2898 151.637 14.4406 151.989 14.62 152.362C15.3377 153.84 15.9764 155.355 16.73 156.805L17.3544 158.06C16.9812 157.738 16.5936 157.429 16.1917 157.142C14.6271 156.044 12.9334 155.441 11.5841 156.855C9.91907 158.599 10.9956 161.498 14.0961 161.592C15.7102 161.629 17.3128 161.311 18.7898 160.659C19.6797 162.266 20.5912 163.852 21.5816 165.41C21.9476 166.005 22.2993 166.594 22.7156 167.182C22.1525 166.668 21.5581 166.188 20.9357 165.747C19.3711 164.649 17.6774 164.046 16.3209 165.46C14.663 167.204 15.7396 170.103 18.84 170.197C20.6121 170.218 22.3637 169.817 23.95 169.027C24.4668 169.745 24.9978 170.462 25.5433 171.18C24.3878 172.522 24.7682 174.768 27.115 175.795C28.2549 176.27 29.4697 176.54 30.7035 176.591C30.8471 176.706 30.9906 176.821 31.1485 176.929L31.2203 176.986C32.7035 182.527 34.4618 187.986 36.4953 193.364C37.3565 195.653 38.2824 197.921 39.2369 200.175H30.6246V234.136H56.9424V200.146H42.933C41.7345 197.527 40.579 194.878 39.5025 192.201C37.7441 187.809 36.1508 183.345 34.7657 178.816C35.0014 178.886 35.241 178.941 35.4834 178.981C35.8021 179.046 36.129 179.06 36.4523 179.024L36.0791 176.663H35.8279C35.6782 176.642 35.5297 176.613 35.3829 176.577C35.0513 176.482 34.7275 176.362 34.414 176.218L34.0408 176.046C35.4259 175.563 36.7122 174.834 37.8374 173.893C40.3278 171.74 39.6245 168.797 37.2991 168.546C35.4188 168.338 34.3566 169.931 33.7107 171.819C33.5169 172.357 33.359 172.917 33.2226 173.462C33.0863 172.96 32.9499 172.457 32.8207 171.955C32.4403 170.469 32.103 168.969 31.7585 167.469C33.2617 167.001 34.6587 166.242 35.8709 165.237C38.3613 163.084 37.6508 160.149 35.3327 159.898C33.4451 159.69 32.3901 161.283 31.7442 163.17C31.5504 163.716 31.3853 164.283 31.2418 164.843C31.0265 163.752 30.8183 162.654 30.6246 161.556C30.4882 160.745 30.359 159.926 30.237 159.108C30.194 157.946 30.1724 156.783 30.1868 155.613C30.1868 154.974 30.1868 154.336 30.2442 153.697C31.6513 154.142 33.127 154.329 34.6006 154.25C37.8733 154.034 39.079 151.235 37.3709 149.649C35.9786 148.35 34.1772 148.996 32.5049 150.101C31.755 150.611 31.0361 151.164 30.3518 151.759C30.5534 149.028 30.9685 146.316 31.5935 143.649C31.9597 142.078 32.4174 140.53 32.9643 139.013C34.4649 139.53 36.0515 139.752 37.6365 139.666C40.9091 139.458 42.1149 136.659 40.4068 135.066C39.0216 133.774 37.213 134.412 35.5408 135.525C34.9571 135.926 34.3964 136.36 33.8614 136.824C34.4925 135.339 35.2263 133.9 36.0575 132.518C37.706 129.728 39.7731 127.208 42.1866 125.047C43.4374 126.2 44.9167 127.078 46.5287 127.623C49.6435 128.642 51.8037 126.489 50.8349 124.379C50.0239 122.664 48.1148 122.585 46.1483 122.994C45.3905 123.156 44.6428 123.362 43.9091 123.611L43.9593 123.568C46.6374 121.478 49.5234 119.67 52.5717 118.171C53.6471 119.579 55.013 120.739 56.5764 121.573C59.4903 123.073 61.9663 121.293 61.3204 119.054C60.7965 117.231 58.9233 116.85 56.9209 116.901C56.1345 116.943 55.351 117.03 54.5741 117.159C57.8109 115.63 61.1123 114.188 64.2988 112.501H64.3706C65.7972 113.733 67.4898 114.617 69.3155 115.085C72.4949 115.874 74.4901 113.563 73.3418 111.496C72.4088 109.846 70.471 109.917 68.5691 110.463C68.0308 110.621 67.4926 110.815 66.9687 111.016C69.0967 109.779 71.1592 108.432 73.148 106.982L73.3131 107.162V107.068C74.7539 108.311 76.4602 109.207 78.301 109.688C81.4733 110.47 83.4756 108.166 82.3273 106.099C81.423 104.542 79.514 104.607 77.5834 105.159ZM27.4021 170.19C26.749 169.429 26.1318 168.632 25.5289 167.828C25.6725 167.699 25.8304 167.556 25.9883 167.398C26.8851 167.677 27.8133 167.844 28.7514 167.893V168.044L29.1892 167.95C29.4188 169.084 29.6557 170.211 29.9069 171.338C29.6152 170.956 29.2343 170.652 28.7976 170.452C28.3609 170.251 27.8817 170.161 27.4021 170.19ZM29.7418 143.168C29.5193 144.015 29.3327 144.862 29.1533 145.716L29.0456 145.565C29.0456 143.814 29.072 142.068 29.1246 140.326C29.1748 139.106 29.261 137.893 29.3686 136.673C29.9591 137.275 30.6083 137.816 31.3064 138.288C30.6989 139.885 30.179 141.514 29.749 143.168H29.7418ZM32.6844 135.13C32.7274 134.814 32.7633 134.491 32.7777 134.176V133.695C33.036 133.616 33.3016 133.522 33.5599 133.415C33.2729 133.982 32.9714 134.556 32.6915 135.13H32.6844ZM36.4235 129.066C36.2995 128.782 36.1192 128.526 35.8934 128.314C35.6677 128.102 35.4012 127.937 35.1102 127.831C33.3375 127.113 31.9021 128.405 30.7609 130.056L30.7035 130.135H30.5887C30.4683 130.108 30.3459 130.091 30.2227 130.085C30.2142 129.984 30.2315 129.883 30.2729 129.79C30.7273 127.198 31.3409 124.636 32.1102 122.118C33.7577 122.327 35.4306 122.198 37.0264 121.738C38.0123 121.479 38.8698 120.869 39.4379 120.023C39.7537 121.47 40.3565 122.839 41.2106 124.049C39.4449 125.551 37.8428 127.235 36.4307 129.073L36.4235 129.066Z" fill="#21AD80"/>
<path opacity="0.3" d="M77.5833 105.159C76.2143 105.606 74.8703 106.126 73.5571 106.717C74.2748 106.193 74.9925 105.647 75.7102 105.095C78.9055 102.525 81.9466 99.7687 84.8177 96.8411C81.4486 100.114 77.8511 103.143 74.0523 105.906C74.576 104.996 75.0364 104.051 75.4303 103.078C76.148 101.291 76.2771 99.4894 74.5762 98.5349C72.4734 97.3578 69.9327 99.1162 70.6002 102.123C71.0076 103.802 71.8014 105.363 72.9183 106.681C70.4393 108.397 67.85 109.948 65.1672 111.324L64.916 111.453C65.4832 110.471 65.9843 109.452 66.416 108.403C67.0907 106.623 67.2629 104.815 65.5548 103.867C63.4519 102.683 60.9113 104.449 61.5859 107.456C61.9865 109.112 62.7624 110.654 63.8538 111.963C60.6314 113.549 57.3013 114.898 53.9855 116.362L53.5047 116.578C54.1518 115.883 54.7535 115.147 55.3061 114.374C56.3826 112.795 56.964 111.087 55.5286 109.76C53.7631 108.123 50.8707 109.243 50.8277 112.343C50.8296 114.055 51.2275 115.742 51.9903 117.274C48.8876 118.724 45.9396 120.484 43.1914 122.527L43.1053 122.599C43.477 122.01 43.8172 121.401 44.1244 120.776C44.9354 119.047 45.2368 117.267 43.6005 116.183C43.268 115.954 42.888 115.804 42.489 115.743C42.09 115.683 41.6825 115.713 41.2971 115.833C40.9116 115.952 40.5583 116.158 40.2636 116.433C39.9689 116.709 39.7406 117.048 39.5958 117.425C39.38 117.088 39.0873 116.808 38.7417 116.606C37.0982 115.659 35.4834 116.685 34.0982 118.135C33.7394 118.515 33.3805 118.925 33.0719 119.326C34.1404 116.361 35.4836 113.502 37.0838 110.786C38.6077 111.452 40.251 111.801 41.9139 111.812C45.1866 111.812 46.5646 109.085 44.9569 107.391C43.6507 106.02 41.8134 106.544 40.0766 107.549C39.5047 107.883 38.9513 108.247 38.4187 108.64C40.0825 106.134 41.9706 103.785 44.0598 101.621C45.4288 102.728 47.0197 103.529 48.7248 103.968C51.9042 104.75 53.8994 102.446 52.7511 100.415C51.8181 98.7645 49.8803 98.8291 47.9784 99.3817C47.0681 99.654 46.1763 99.9849 45.3086 100.372C46.177 99.5253 47.0741 98.7143 47.9856 97.9105C49.177 96.8913 50.4114 95.9081 51.6674 94.9464C53.0178 96.024 54.5806 96.8042 56.2535 97.2358C59.4328 98.0181 61.428 95.7143 60.2797 93.6832C59.3467 92.0325 57.4089 92.0971 55.4999 92.6498C55.0549 92.7789 54.6028 92.9368 54.165 93.1019C55.8228 91.9177 57.5022 90.7622 59.1888 89.6139L60.7462 88.5445C62.1496 89.72 63.7971 90.5683 65.5691 91.0278C68.7485 91.8101 70.7509 89.5062 69.6026 87.4752C68.6624 85.8245 66.7318 85.8891 64.8227 86.4417C64.0715 86.6714 63.3323 86.9369 62.6051 87.2383L63.5668 86.5206C64.1553 86.0972 64.7438 85.6666 65.3179 85.2144C66.0356 84.6762 66.7174 84.0805 67.4136 83.5063C67.8155 83.1905 68.1959 82.8532 68.5763 82.5087C69.9853 83.6967 71.6434 84.5528 73.4279 85.0135C76.6073 85.7958 78.6025 83.492 77.4542 81.4609C76.5212 79.8102 74.5834 79.8748 72.6815 80.4274C71.6149 80.757 70.5699 81.1524 69.5523 81.6116C70.8514 80.4059 72.1073 79.1499 73.2987 77.8437C73.3777 77.7504 73.4494 77.6571 73.5355 77.571C74.0451 77.004 74.5475 76.4298 75.0355 75.8342C75.5236 75.2385 76.1551 74.4562 76.6862 73.7385C78.8672 70.8758 80.6624 67.739 82.0259 64.4084C80.597 67.6994 78.7414 70.788 76.5068 73.5949C74.2967 76.4136 71.8291 79.0205 69.1361 81.3819L68.8418 81.6331C69.4536 80.5913 69.9954 79.51 70.4638 78.3963C71.1456 76.6164 71.3107 74.8078 69.6026 73.8605C67.5069 72.6763 64.9591 74.4418 65.6337 77.449C66.0671 79.2296 66.9322 80.8762 68.1528 82.2432L67.5213 82.7886L66.8036 83.4058C66.3873 83.7432 65.9567 84.0661 65.5261 84.3891C65.2964 84.5613 65.0739 84.7408 64.8084 84.913C64.1983 85.3652 63.5811 85.8029 62.9567 86.2336L62.0596 86.8436L61.0405 87.5613C61.6362 86.5446 62.159 85.4869 62.6051 84.3963C63.2869 82.6092 63.4519 80.8078 61.751 79.8604C59.6482 78.6762 57.1003 80.4418 57.775 83.4489C58.191 85.1762 59.0155 86.7785 60.1792 88.1211L59.4615 88.6091L56.6697 90.4393L56.1171 90.7981L54.5597 91.8388L53.8851 92.2909C53.1674 92.7861 52.4497 93.2885 51.732 93.8052C52.3086 92.7724 52.8123 91.7004 53.2391 90.5971C53.9568 88.8173 54.086 87.0087 52.3851 86.0613C50.2822 84.8771 47.7416 86.6426 48.4162 89.6498C48.8378 91.4003 49.6804 93.0213 50.8707 94.3722C49.6507 95.2693 48.4449 96.188 47.2823 97.1497C46.4282 97.8674 45.5885 98.5851 44.7632 99.3602C45.1227 98.695 45.4438 98.0096 45.7249 97.3076C46.3995 95.5205 46.5718 93.7191 44.8636 92.7718C42.7608 91.5876 40.2202 93.3531 40.8948 96.3602C41.2953 98.0166 42.0713 99.5587 43.1627 100.867C40.8382 103.177 38.7446 105.708 36.9116 108.425C37.1197 107.641 37.2779 106.845 37.3853 106.042C37.6149 104.147 37.3422 102.367 35.4547 101.851C33.1293 101.212 31.0911 103.537 32.4762 106.307C33.273 107.833 34.413 109.152 35.8063 110.162C33.9984 113.114 32.4886 116.24 31.2992 119.492C31.2682 118.811 31.2011 118.133 31.0982 117.46C30.7753 115.573 30.0145 113.944 28.0552 113.98C25.6438 114.03 24.3447 116.85 26.4619 119.104C27.5911 120.281 28.9692 121.191 30.4954 121.767C29.6792 124.277 29.0153 126.834 28.5074 129.424C28.4212 129.834 28.3567 130.243 28.2777 130.652C28.1916 130.731 28.1055 130.81 28.0265 130.896C27.9404 130.544 27.8399 130.178 27.7251 129.841C27.1222 128.032 26.1174 126.532 24.1868 126.877C21.8185 127.293 20.9644 130.264 23.4046 132.18C24.6447 133.127 26.0743 133.795 27.5959 134.14C27.5959 134.211 27.6533 134.276 27.6892 134.348C27.4237 136.293 27.2227 138.252 27.1007 140.219C27.0074 141.654 26.9571 143.154 26.9284 144.625C24.8758 144.625 23.4261 146.879 24.8399 149.319C25.4366 150.331 26.2011 151.234 27.1007 151.989C27.2729 154.752 27.5457 157.515 27.9117 160.257C27.6214 159.988 27.2663 159.8 26.8812 159.711C26.4961 159.621 26.0943 159.634 25.7155 159.747C24.4237 160.099 23.8424 161.139 23.6342 162.417C23.1745 162.893 22.9172 163.528 22.9165 164.19C21.9548 162.754 21.0433 161.319 20.1606 159.804C21.5081 158.771 22.6252 157.469 23.4404 155.979C24.9835 153.108 23.2395 150.589 20.9931 151.199C19.1558 151.702 18.7539 153.568 18.84 155.57C18.8687 156.33 18.9406 157.087 19.0553 157.838L18.108 156.173C17.3185 154.738 16.6726 153.302 15.8975 151.867C15.7109 151.515 15.5458 151.149 15.3951 150.79C16.9071 150.029 18.2441 148.96 19.3209 147.654C21.3807 145.113 20.139 142.321 17.8137 142.501C15.919 142.652 15.1654 144.41 14.8496 146.391C14.7266 147.254 14.6499 148.124 14.62 148.996L13.9453 147.439C12.5085 143.906 11.326 140.274 10.4071 136.573C12.1186 135.966 13.6731 134.986 14.9573 133.702C17.2611 131.369 16.3066 128.477 13.974 128.42C12.0793 128.377 11.1535 130.049 10.6368 132.008C10.3835 133.048 10.1942 134.103 10.0698 135.166C9.5674 133.042 9.13678 130.889 8.77794 128.707C8.53392 127.372 8.37603 126.015 8.21096 124.666C10.0505 124.302 11.7831 123.524 13.2779 122.391C15.8616 120.382 15.2946 117.367 12.9836 117.03C11.1104 116.736 9.97649 118.279 9.21573 120.137C8.77032 121.31 8.39644 122.508 8.09612 123.726C7.95259 122.161 7.78752 120.59 7.71575 119.018C7.50045 115.773 7.50045 112.517 7.71575 109.272C7.38812 112.514 7.27544 115.775 7.37843 119.032C7.37843 120.532 7.50762 122.025 7.60092 123.525C7.19091 122.505 6.71132 121.515 6.16553 120.561C5.18946 118.917 3.88326 117.69 2.07466 118.408C-0.157367 119.326 -0.351145 122.413 2.44787 123.762C4.08953 124.516 5.89034 124.858 7.69422 124.759C7.8234 126.102 7.93823 127.436 8.13919 128.764C8.41909 130.917 8.77794 132.984 9.20138 135.073C8.7421 134.273 8.23147 133.503 7.67268 132.769C6.48849 131.269 5.03874 130.207 3.36651 131.176C1.27802 132.374 1.47898 135.482 4.42871 136.436C6.09783 136.955 7.86568 137.073 9.58893 136.781C10.4078 140.523 11.4845 144.204 12.8114 147.797L13.2348 148.874C12.8551 148.371 12.4453 147.892 12.0076 147.439C10.6798 146.061 9.13678 145.149 7.53632 146.29C5.57702 147.726 6.10093 150.74 9.11525 151.415C10.7788 151.751 12.4975 151.702 14.1391 151.271C14.2898 151.637 14.4406 151.989 14.62 152.362C15.3377 153.84 15.9764 155.355 16.73 156.805L17.3544 158.06C16.9812 157.738 16.5936 157.429 16.1917 157.142C14.6271 156.044 12.9334 155.441 11.5841 156.855C9.91907 158.599 10.9956 161.498 14.0961 161.592C15.7102 161.629 17.3128 161.311 18.7898 160.659C19.6797 162.266 20.5912 163.852 21.5816 165.41C21.9476 166.005 22.2993 166.594 22.7156 167.182C22.1525 166.668 21.5581 166.188 20.9357 165.747C19.3711 164.649 17.6774 164.046 16.3209 165.46C14.663 167.204 15.7396 170.103 18.84 170.197C20.6121 170.218 22.3637 169.817 23.95 169.027C24.4667 169.745 24.9978 170.462 25.5433 171.18C24.3878 172.522 24.7682 174.768 27.115 175.795C28.2549 176.27 29.4697 176.54 30.7035 176.591C30.8471 176.706 30.9906 176.821 31.1485 176.929L31.2203 176.986C32.7035 182.527 34.4618 187.986 36.4953 193.364C37.3565 195.653 38.2824 197.921 39.2369 200.175H30.6246V234.136H56.9424V200.146H42.933C41.7345 197.527 40.579 194.878 39.5025 192.201C37.7441 187.809 36.1508 183.345 34.7657 178.816C35.0014 178.886 35.241 178.941 35.4834 178.981C35.8021 179.046 36.129 179.06 36.4523 179.024L36.079 176.663H35.8279C35.6782 176.642 35.5296 176.613 35.3829 176.577C35.0513 176.482 34.7275 176.362 34.414 176.218L34.0408 176.046C35.4259 175.563 36.7122 174.834 37.8374 173.893C40.3278 171.74 39.6245 168.797 37.2991 168.546C35.4188 168.338 34.3566 169.931 33.7107 171.819C33.5169 172.357 33.359 172.917 33.2226 173.462C33.0863 172.96 32.9499 172.457 32.8207 171.955C32.4403 170.469 32.103 168.969 31.7585 167.469C33.2617 167.001 34.6587 166.242 35.8709 165.237C38.3613 163.084 37.6508 160.149 35.3327 159.898C33.4451 159.69 32.3901 161.283 31.7442 163.17C31.5504 163.716 31.3853 164.283 31.2418 164.843C31.0265 163.752 30.8183 162.654 30.6246 161.556C30.4882 160.745 30.359 159.926 30.237 159.108C30.194 157.946 30.1724 156.783 30.1868 155.613C30.1868 154.974 30.1868 154.336 30.2442 153.697C31.6513 154.142 33.127 154.329 34.6006 154.25C37.8733 154.034 39.079 151.235 37.3709 149.649C35.9786 148.35 34.1772 148.996 32.5049 150.101C31.755 150.611 31.0361 151.164 30.3518 151.759C30.5534 149.028 30.9685 146.316 31.5935 143.649C31.9597 142.078 32.4174 140.53 32.9643 139.013C34.4649 139.53 36.0515 139.752 37.6365 139.666C40.9091 139.458 42.1149 136.659 40.4068 135.066C39.0216 133.774 37.213 134.412 35.5408 135.525C34.957 135.926 34.3964 136.36 33.8614 136.824C34.4925 135.339 35.2263 133.9 36.0575 132.518C37.706 129.728 39.7731 127.208 42.1866 125.047C43.4374 126.2 44.9167 127.078 46.5287 127.623C49.6435 128.642 51.8037 126.489 50.8349 124.379C50.0239 122.664 48.1148 122.585 46.1483 122.994C45.3905 123.156 44.6428 123.362 43.9091 123.611L43.9593 123.568C46.6374 121.478 49.5234 119.67 52.5717 118.171C53.6471 119.579 55.013 120.739 56.5764 121.573C59.4903 123.073 61.9663 121.293 61.3204 119.054C60.7965 117.231 58.9233 116.85 56.9209 116.901C56.1344 116.943 55.351 117.03 54.5741 117.159C57.8109 115.63 61.1123 114.188 64.2988 112.501H64.3706C65.7972 113.733 67.4898 114.617 69.3155 115.085C72.4949 115.874 74.4901 113.563 73.3418 111.496C72.4088 109.846 70.471 109.917 68.5691 110.463C68.0308 110.621 67.4926 110.815 66.9686 111.016C69.0967 109.779 71.1592 108.432 73.148 106.982L73.3131 107.162V107.068C74.7539 108.311 76.4602 109.207 78.301 109.688C81.4733 110.47 83.4756 108.166 82.3273 106.099C81.423 104.542 79.5139 104.607 77.5833 105.159ZM27.4021 170.19C26.749 169.429 26.1318 168.632 25.5289 167.828C25.6725 167.699 25.8304 167.556 25.9883 167.398C26.8851 167.677 27.8133 167.844 28.7514 167.893V168.044L29.1892 167.95C29.4188 169.084 29.6557 170.211 29.9069 171.338C29.6152 170.956 29.2343 170.652 28.7976 170.452C28.3609 170.251 27.8817 170.161 27.4021 170.19ZM29.7418 143.168C29.5193 144.015 29.3327 144.862 29.1533 145.716L29.0456 145.565C29.0456 143.814 29.072 142.068 29.1246 140.326C29.1748 139.106 29.2609 137.893 29.3686 136.673C29.9591 137.275 30.6083 137.816 31.3064 138.288C30.6989 139.885 30.179 141.514 29.749 143.168H29.7418ZM32.6844 135.13C32.7274 134.814 32.7633 134.491 32.7777 134.176V133.695C33.036 133.616 33.3016 133.522 33.5599 133.415C33.2729 133.982 32.9714 134.556 32.6915 135.13H32.6844ZM36.4235 129.066C36.2995 128.782 36.1192 128.526 35.8934 128.314C35.6677 128.102 35.4012 127.937 35.1102 127.831C33.3375 127.113 31.9021 128.405 30.7609 130.056L30.7035 130.135H30.5887C30.4683 130.108 30.3459 130.091 30.2227 130.085C30.2142 129.984 30.2315 129.883 30.2729 129.79C30.7273 127.198 31.3409 124.636 32.1102 122.118C33.7577 122.327 35.4306 122.198 37.0264 121.738C38.0123 121.479 38.8698 120.869 39.4379 120.023C39.7537 121.47 40.3565 122.839 41.2106 124.049C39.4449 125.551 37.8428 127.235 36.4307 129.073L36.4235 129.066Z" fill="#21AD80"/>
<path d="M254.545 202.823C254.545 202.823 251.072 195.065 250.239 194.268C249.407 193.472 242.754 191.06 240.909 184.938C239.065 178.816 235.562 162.474 244.39 163.544C253.218 164.613 251.072 181.73 254.28 181.192C257.488 180.653 251.61 153.388 257.222 149.613C262.835 145.838 271.928 149.348 270.859 163.788C269.789 178.228 267.651 186.51 269.524 185.713C271.397 184.917 276.744 181.967 276.744 188.118C276.744 194.268 271.662 198.546 268.72 198.811C265.777 199.077 264.414 199.349 264.414 199.349V203.354L254.545 202.823Z" fill="#21AD80" stroke="#21AD80" stroke-width="0.314133" stroke-linecap="round" stroke-linejoin="round"/>
<path d="M251.718 187.787C249.701 185.878 247.849 184.027 246.995 182.326C245.302 178.931 244.024 169.407 244.024 169.407" stroke="white" stroke-width="0.157067" stroke-linecap="round" stroke-linejoin="round"/>
<path d="M241.018 174.058C242.352 179.62 242.539 183.811 246.573 188.692C248.726 191.333 254.424 193.572 255.063 195.905C255.634 198.711 256.063 201.545 256.348 204.395L259.534 204.61C259.534 204.61 260.18 199.084 258.357 195.144" stroke="white" stroke-width="0.157067" stroke-linecap="round" stroke-linejoin="round"/>
<path d="M241.907 165.137C241.907 165.137 239.524 166.967 240.371 171.474" stroke="white" stroke-width="0.157067" stroke-linecap="round" stroke-linejoin="round"/>
<path d="M257.172 181.551L255.909 183.596" stroke="white" stroke-width="0.157067" stroke-linecap="round" stroke-linejoin="round"/>
<path d="M257.61 180.84L257.172 181.55" stroke="white" stroke-width="0.157067" stroke-linecap="round" stroke-linejoin="round"/>
<path d="M261.852 150.28C261.852 150.28 256.972 150.072 256.972 154.737C256.972 158.677 258.177 172.127 257.919 178.278" stroke="white" stroke-width="0.157067" stroke-linecap="round" stroke-linejoin="round"/>
<path d="M265.677 188.498C265.563 190.098 265.491 191.232 265.491 191.663C265.491 193.995 271.426 185.082 274.189 184.873C274.189 184.873 276.945 184.658 275.883 189.754C275.497 191.645 274.601 193.396 273.294 194.816C271.986 196.236 270.315 197.273 268.462 197.813C266.122 198.452 264.213 197.39 263.79 198.452C263.452 199.701 263.238 200.98 263.151 202.27" stroke="white" stroke-width="0.157067" stroke-linecap="round" stroke-linejoin="round"/>
<path d="M267.062 154.709C267.431 156.248 267.605 157.827 267.579 159.41C267.579 164.376 266.632 176.089 266 183.998" stroke="white" stroke-width="0.157067" stroke-linecap="round" stroke-linejoin="round"/>
<path d="M264.608 150.711C265.245 151.076 265.762 151.62 266.093 152.276" stroke="white" stroke-width="0.157067" stroke-linecap="round" stroke-linejoin="round"/>
<path d="M261.156 187.206L261.005 190.177" stroke="white" stroke-width="0.157067" stroke-linecap="round" stroke-linejoin="round"/>
<path d="M262.275 153.252C262.275 153.252 261.005 153.675 261.428 158.132C261.78 161.814 261.428 178.529 261.263 184.235" stroke="white" stroke-width="0.157067" stroke-linecap="round" stroke-linejoin="round"/>
<path d="M275.646 186.144C273.825 189.55 270.91 192.243 267.37 193.787C261.629 196.12 261.428 195.058 261.428 197.376C261.428 199.694 261.213 203.957 261.213 203.957" stroke="white" stroke-width="0.157067" stroke-linecap="round" stroke-linejoin="round"/>
<path d="M267.687 234.114H249.141L245.172 207.251H271.655L267.687 234.114Z" fill="#073A93" stroke="#21AD80" stroke-width="0.314133" stroke-linecap="round" stroke-linejoin="round"/>
<path d="M273.93 203.017H242.897V210.208H273.93V203.017Z" fill="#073A93" stroke="#21AD80" stroke-width="0.314133" stroke-linecap="round" stroke-linejoin="round"/>
<path d="M165.86 216.029V201.445H122.913V216.029C122.906 220.779 121.298 225.388 118.349 229.112L116.468 231.481H172.305L170.425 229.112C167.475 225.388 165.867 220.779 165.86 216.029Z" fill="white" stroke="#2E353A" stroke-width="0.314133" stroke-linecap="round" stroke-linejoin="round"/>
<path d="M120.272 226.241H168.501C166.769 223.116 165.861 219.602 165.86 216.029V201.445H122.913V216.029C122.912 219.602 122.003 223.116 120.272 226.241Z" fill="#1B70E5"/>
<path d="M224.604 76.5806H64.1632C60.802 76.5806 58.0771 79.3054 58.0771 82.6666V199.96C58.0771 203.321 60.802 206.046 64.1632 206.046H224.604C227.965 206.046 230.69 203.321 230.69 199.96V82.6666C230.69 79.3054 227.965 76.5806 224.604 76.5806Z" fill="#2E353A" stroke="#2E353A" stroke-width="0.314133" stroke-linecap="round" stroke-linejoin="round"/>
<path d="M58.0767 185.921H230.697V199.952C230.697 201.566 230.055 203.114 228.914 204.256C227.773 205.397 226.225 206.038 224.611 206.038H64.1699C62.5558 206.038 61.0078 205.397 59.8664 204.256C58.725 203.114 58.0838 201.566 58.0838 199.952V185.921H58.0767Z" fill="white" stroke="#2E353A" stroke-width="0.314133" stroke-linecap="round" stroke-linejoin="round"/>
<path d="M222.013 84.6401H66.761V176.103H222.013V84.6401Z" fill="white" stroke="#2E353A" stroke-width="0.314133" stroke-linecap="round" stroke-linejoin="round"/>
<path d="M147.573 195.983C147.573 195.353 147.386 194.737 147.036 194.213C146.686 193.689 146.188 193.281 145.606 193.039C145.023 192.798 144.383 192.735 143.765 192.858C143.146 192.981 142.579 193.285 142.133 193.73C141.687 194.176 141.384 194.744 141.261 195.362C141.138 195.98 141.201 196.621 141.442 197.203C141.683 197.785 142.092 198.283 142.616 198.633C143.14 198.983 143.756 199.17 144.386 199.17C145.231 199.17 146.042 198.834 146.64 198.237C147.237 197.639 147.573 196.829 147.573 195.983Z" fill="#2E353A" stroke="#2E353A" stroke-width="0.314133" stroke-linecap="round" stroke-linejoin="round"/>
<path d="M172.312 231.509H116.468V234.115H172.312V231.509Z" fill="white" stroke="#2E353A" stroke-width="0.314133" stroke-linecap="round" stroke-linejoin="round"/>
<path d="M220.556 91.0852H67.9807V99.1019H220.556V91.0852Z" fill="white" stroke="#2E353A" stroke-width="0.314133" stroke-linecap="round" stroke-linejoin="round"/>
<path d="M93.1575 99.1018L91.3273 94.1497H67.9807V99.1018V105.669V172.206H220.556V99.1018H93.1575Z" fill="#1B70E5" stroke="#2E353A" stroke-width="0.314133" stroke-linecap="round" stroke-linejoin="round"/>
<path d="M109.047 135.353H180.587" stroke="#2E353A" stroke-width="0.628267" stroke-linecap="round" stroke-linejoin="round"/>
<path d="M109.047 142.386H180.587" stroke="#2E353A" stroke-width="0.628267" stroke-linecap="round" stroke-linejoin="round"/>
<path d="M109.047 149.419H180.587" stroke="#2E353A" stroke-width="0.628267" stroke-linecap="round" stroke-linejoin="round"/>
<path d="M109.047 156.46H180.587" stroke="#2E353A" stroke-width="0.628267" stroke-linecap="round" stroke-linejoin="round"/>
<path d="M176.805 116.599H111.976C111.309 116.6 110.648 116.47 110.031 116.215C109.414 115.961 108.853 115.587 108.381 115.116C107.908 114.645 107.533 114.085 107.277 113.469C107.021 112.853 106.888 112.192 106.887 111.525C106.887 110.858 107.017 110.197 107.272 109.58C107.526 108.963 107.899 108.402 108.371 107.93C108.842 107.457 109.401 107.082 110.018 106.826C110.634 106.57 111.294 106.437 111.962 106.437H176.805C177.474 106.436 178.136 106.567 178.754 106.822C179.371 107.077 179.933 107.452 180.405 107.925C180.878 108.397 181.253 108.959 181.508 109.577C181.764 110.194 181.895 110.856 181.894 111.525C181.893 112.192 181.76 112.853 181.504 113.469C181.248 114.085 180.873 114.645 180.4 115.116C179.928 115.587 179.367 115.961 178.75 116.215C178.134 116.47 177.473 116.6 176.805 116.599Z" fill="white" stroke="#2E353A" stroke-width="0.314133" stroke-linecap="round" stroke-linejoin="round"/>
<path d="M176.805 116.599H167.949V106.422H176.805C177.474 106.421 178.136 106.552 178.753 106.808C179.371 107.063 179.933 107.438 180.405 107.91C180.878 108.383 181.253 108.944 181.508 109.562C181.764 110.18 181.895 110.842 181.894 111.511C181.895 112.179 181.764 112.841 181.508 113.459C181.253 114.077 180.878 114.638 180.405 115.111C179.933 115.583 179.371 115.958 178.753 116.214C178.136 116.469 177.474 116.6 176.805 116.599Z" fill="#2E353A" stroke="#2E353A" stroke-width="0.314133" stroke-linecap="round" stroke-linejoin="round"/>
<path d="M174.831 107.714C174.41 107.319 173.88 107.058 173.31 106.964C172.74 106.869 172.155 106.946 171.629 107.185C171.102 107.424 170.659 107.813 170.354 108.304C170.048 108.794 169.896 109.365 169.915 109.942C169.934 110.52 170.124 111.078 170.461 111.548C170.798 112.018 171.266 112.377 171.807 112.58C172.348 112.783 172.937 112.821 173.5 112.69C174.062 112.558 174.573 112.263 174.968 111.841C175.231 111.562 175.436 111.235 175.572 110.876C175.708 110.518 175.772 110.137 175.76 109.754C175.748 109.371 175.66 108.995 175.502 108.646C175.344 108.297 175.119 107.983 174.839 107.721L174.831 107.714ZM174.544 111.446C174.227 111.782 173.818 112.017 173.368 112.121C172.917 112.225 172.446 112.194 172.014 112.03C171.581 111.867 171.207 111.579 170.938 111.203C170.669 110.827 170.518 110.38 170.503 109.918C170.488 109.456 170.61 109 170.854 108.607C171.098 108.214 171.453 107.903 171.874 107.712C172.294 107.52 172.762 107.458 173.219 107.533C173.675 107.607 174.099 107.815 174.437 108.13C174.89 108.556 175.157 109.144 175.177 109.766C175.197 110.388 174.97 110.992 174.544 111.446Z" fill="white"/>
<path d="M177.028 112.903C176.964 112.841 176.883 112.798 176.795 112.78C176.707 112.762 176.616 112.77 176.533 112.803L175.478 111.812C175.424 111.76 175.352 111.73 175.277 111.73C175.201 111.73 175.129 111.76 175.076 111.812L174.982 111.913C174.931 111.968 174.902 112.041 174.902 112.117C174.902 112.193 174.931 112.266 174.982 112.322L176.023 113.298C175.992 113.387 175.987 113.483 176.009 113.574C176.031 113.666 176.078 113.749 176.145 113.815L177.939 115.573C178.058 115.69 178.218 115.756 178.384 115.756C178.551 115.756 178.711 115.69 178.829 115.573C178.947 115.455 179.013 115.295 179.013 115.128C179.013 114.961 178.947 114.801 178.829 114.683L177.028 112.903Z" fill="white"/>
<path d="M195.558 147.295C195.768 147.815 196.08 148.287 196.475 148.684C196.871 149.081 197.343 149.395 197.862 149.606C198.673 149.936 199.757 149.864 201.005 150.568C203.826 152.154 210.866 150.74 215.969 151.285C221.072 151.831 227.948 146.182 227.948 146.182L248.194 147.295V127.199C248.194 127.199 227.065 128.082 222.486 126.317C217.907 124.551 212.804 120.862 210.515 121.034C208.225 121.207 189.386 123.324 189.386 123.324L195.551 147.295H195.558Z" fill="white" stroke="#2E353A" stroke-width="0.314133" stroke-linecap="round" stroke-linejoin="round"/>
<path d="M190.319 66.2673C186.138 66.73 182.189 68.422 178.97 71.1292C175.751 73.8365 173.408 77.4374 172.235 81.4766C171.063 85.5158 171.115 89.812 172.384 93.8217C173.654 97.8315 176.084 101.375 179.367 104.003C182.65 106.632 186.639 108.228 190.829 108.59C195.02 108.952 199.223 108.063 202.908 106.035C206.593 104.008 209.594 100.934 211.532 97.2007C213.47 93.4678 214.257 89.2441 213.794 85.0637C213.489 82.2874 212.639 79.5985 211.294 77.1508C209.948 74.7031 208.133 72.5446 205.953 70.7989C203.773 69.0532 201.27 67.7544 198.587 66.9768C195.904 66.1992 193.094 65.9581 190.319 66.2673ZM194.539 104.363C191.185 104.735 187.797 104.105 184.801 102.552C181.806 100.998 179.339 98.5917 177.711 95.6362C176.084 92.6806 175.369 89.3088 175.658 85.9471C175.947 82.5854 177.226 79.3849 179.334 76.7502C181.441 74.1155 184.283 72.165 187.499 71.1453C190.716 70.1257 194.162 70.0826 197.403 71.0216C200.644 71.9607 203.533 73.8396 205.706 76.4208C207.879 79.0021 209.237 82.1697 209.61 85.5231C209.858 87.7497 209.664 90.0033 209.041 92.1551C208.417 94.3069 207.376 96.3149 205.976 98.0643C204.577 99.8137 202.846 101.27 200.884 102.351C198.921 103.432 196.765 104.115 194.539 104.363Z" fill="white" stroke="#2E353A" stroke-width="0.314133" stroke-linecap="round" stroke-linejoin="round"/>
<path d="M190.204 65.0542C186.023 65.5169 182.074 67.2089 178.855 69.9161C175.637 72.6234 173.293 76.2243 172.121 80.2635C170.948 84.3027 171 88.5988 172.27 92.6086C173.539 96.6183 175.969 100.162 179.252 102.79C182.535 105.419 186.524 107.015 190.715 107.377C194.905 107.739 199.108 106.85 202.793 104.822C206.479 102.795 209.48 99.7206 211.417 95.9876C213.355 92.2547 214.142 88.031 213.68 83.8506C213.057 78.2458 210.235 73.1174 205.833 69.5928C201.431 66.0681 195.809 64.4357 190.204 65.0542ZM194.424 103.149C191.07 103.522 187.682 102.892 184.687 101.338C181.691 99.7852 179.224 97.3786 177.596 94.423C175.969 91.4675 175.254 88.0957 175.543 84.734C175.832 81.3723 177.111 78.1718 179.219 75.5371C181.327 72.9024 184.168 70.9519 187.385 69.9322C190.601 68.9126 194.047 68.8695 197.288 69.8085C200.529 70.7476 203.418 72.6265 205.591 75.2077C207.764 77.789 209.123 80.9566 209.495 84.31C209.743 86.5366 209.549 88.7902 208.926 90.942C208.302 93.0938 207.261 95.1018 205.861 96.8512C204.462 98.6006 202.732 100.057 200.769 101.138C198.807 102.219 196.65 102.902 194.424 103.149Z" fill="white" stroke="#2E353A" stroke-width="0.314133" stroke-linecap="round" stroke-linejoin="round"/>
<path d="M195.584 107.721L194.578 107.833C193.443 107.958 192.625 108.98 192.751 110.115L194.383 124.852C194.509 125.987 195.531 126.805 196.665 126.679L197.671 126.568C198.806 126.442 199.624 125.42 199.498 124.286L197.866 109.548C197.74 108.414 196.718 107.596 195.584 107.721Z" fill="#1B70E5" stroke="#2E353A" stroke-width="0.314133" stroke-linecap="round" stroke-linejoin="round"/>
<path d="M195.256 120.023L197.409 119.793C198.335 119.694 199.263 119.964 199.991 120.544C200.719 121.125 201.189 121.969 201.299 122.893L204.522 152.039C204.653 153.231 204.305 154.425 203.555 155.361C202.806 156.296 201.715 156.895 200.524 157.027H200.38C199.79 157.093 199.193 157.042 198.623 156.876C198.052 156.711 197.52 156.435 197.057 156.063C196.594 155.692 196.208 155.233 195.923 154.712C195.637 154.192 195.457 153.62 195.393 153.029L192.17 123.891C192.118 123.43 192.158 122.963 192.287 122.516C192.416 122.07 192.631 121.654 192.921 121.291C193.211 120.929 193.57 120.627 193.977 120.403C194.384 120.179 194.83 120.038 195.292 119.987L195.256 120.023Z" fill="#2E353A" stroke="#2E353A" stroke-width="0.314133" stroke-linecap="round" stroke-linejoin="round"/>
<path d="M198.386 144.309C198.386 144.309 193.283 144.496 192.566 145.379C191.848 146.261 191.977 149.333 193.362 149.685C196.893 150.611 204.4 150.072 204.695 149.441C204.989 148.809 205.592 145.135 204.042 144.74C202.17 144.453 200.279 144.309 198.386 144.309Z" fill="white" stroke="#2E353A" stroke-width="0.314133" stroke-linecap="round" stroke-linejoin="round"/>
<path d="M196.914 137.19C196.914 137.19 190.979 136.967 190.053 138.037C189.127 139.106 188.948 143.104 190.512 143.707C194.503 145.235 203.481 144.64 203.89 143.85C204.299 143.061 205.189 138.963 203.431 138.302C201.673 137.642 196.914 137.19 196.914 137.19Z" fill="white" stroke="#2E353A" stroke-width="0.314133" stroke-linecap="round" stroke-linejoin="round"/>
<path d="M196.06 129.152C196.06 129.152 189.716 128.908 188.726 130.056C187.735 131.204 187.541 135.467 189.214 136.113C193.52 137.75 202.85 137.75 203.288 136.903C203.725 136.056 204.902 131.046 203.022 130.336C201.142 129.625 196.06 129.152 196.06 129.152Z" fill="white" stroke="#2E353A" stroke-width="0.314133" stroke-linecap="round" stroke-linejoin="round"/>
<path d="M192.4 121.63C192.4 121.63 186.056 121.393 185.065 122.535C184.075 123.676 183.838 128.075 185.553 128.592C187.269 129.109 199.19 130.228 199.627 129.389C200.065 128.549 201.242 123.525 199.362 122.814C197.481 122.104 192.4 121.63 192.4 121.63Z" fill="white" stroke="#2E353A" stroke-width="0.314133" stroke-linecap="round" stroke-linejoin="round"/>
<path d="M213.177 142.738C212.038 142.424 210.959 141.925 209.983 141.259C204.881 137.735 205.053 129.64 205.053 129.64L203.826 129.288C202.812 128.902 201.861 128.368 201.005 127.702C201.416 129.374 201.656 131.084 201.723 132.805C201.704 133.75 201.335 134.655 200.686 135.344C200.038 136.032 199.156 136.455 198.213 136.53C196.627 136.709 195.924 136.881 195.393 134.771C194.862 132.661 192.228 124.207 192.048 122.972C191.89 121.853 193.771 119.857 196.763 119.384C201.364 119.757 205.9 121.042 210.536 121.042C212.149 121.193 213.695 121.762 215.022 122.692" fill="white"/>
<path d="M213.177 142.738C212.038 142.424 210.959 141.925 209.983 141.259C204.881 137.735 205.053 129.64 205.053 129.64L203.826 129.288C202.812 128.902 201.861 128.368 201.005 127.702C201.416 129.374 201.656 131.084 201.723 132.805C201.704 133.75 201.335 134.655 200.686 135.344C200.038 136.032 199.156 136.455 198.213 136.53C196.627 136.709 195.924 136.881 195.393 134.771C194.862 132.661 192.228 124.207 192.048 122.972C191.89 121.853 193.771 119.857 196.763 119.384C201.364 119.757 205.9 121.042 210.536 121.042C212.149 121.193 213.695 121.762 215.022 122.692" stroke="#2E353A" stroke-width="0.314133" stroke-linecap="round" stroke-linejoin="round"/>
<path d="M218.029 143.183C217.47 143.211 216.909 143.211 216.35 143.183H218.029Z" fill="white"/>
<path d="M218.029 143.183C217.47 143.211 216.909 143.211 216.35 143.183" stroke="#2E353A" stroke-width="0.314133" stroke-linecap="round" stroke-linejoin="round"/>
<path d="M221.782 142.486C220.564 142.872 219.304 143.113 218.029 143.204L221.782 142.486Z" fill="white"/>
<path d="M221.782 142.486C220.564 142.872 219.304 143.113 218.029 143.204" stroke="#2E353A" stroke-width="0.314133" stroke-linecap="round" stroke-linejoin="round"/>
<path d="M228.12 140.204H234.457" stroke="#2E353A" stroke-width="0.314133" stroke-linecap="round" stroke-linejoin="round"/>
<path d="M228.651 141.962H231.292" stroke="#2E353A" stroke-width="0.314133" stroke-linecap="round" stroke-linejoin="round"/>
<path d="M205.053 129.64C205.053 129.64 208.556 129.64 210.852 127.551" stroke="#2E353A" stroke-width="0.314133" stroke-linecap="round" stroke-linejoin="round"/>
<path d="M200.926 127.472C200.825 126.516 200.626 125.573 200.33 124.659" stroke="#2E353A" stroke-width="0.314133" stroke-linecap="round" stroke-linejoin="round"/>
<path d="M195.343 133.845C195.343 133.845 194.675 131.994 195.486 131.326C196.297 130.659 198.45 129.697 198.823 130.436C199.197 131.175 200.008 134.584 199.785 135.252L199.563 135.919" stroke="#2E353A" stroke-width="0.157067" stroke-linecap="round" stroke-linejoin="round"/>
<path d="M292.626 156.302H231.945V126.475H292.626" fill="#1B70E5"/>
<path d="M292.626 156.302H231.945V126.475H292.626" stroke="#2E353A" stroke-width="0.314133" stroke-linecap="round" stroke-linejoin="round"/>
<path d="M236.395 154.307C237.148 154.307 237.758 153.696 237.758 152.943C237.758 152.19 237.148 151.58 236.395 151.58C235.641 151.58 235.031 152.19 235.031 152.943C235.031 153.696 235.641 154.307 236.395 154.307Z" fill="white" stroke="#2E353A" stroke-width="0.314133" stroke-linecap="round" stroke-linejoin="round"/>
<path d="M139.958 98.0683C140.478 97.8586 140.95 97.5467 141.347 97.1509C141.744 96.7552 142.058 96.2837 142.269 95.7645C142.599 94.9535 142.52 93.8769 143.231 92.621C144.81 89.8076 143.403 82.767 143.948 77.657C144.494 72.547 138.838 65.6859 138.838 65.6859L139.936 45.4397H119.841C119.841 45.4397 120.717 66.5686 118.958 71.1404C117.2 75.7121 113.504 80.8292 113.676 83.1187C113.848 85.4081 115.98 104.233 115.98 104.233L139.922 98.0683H139.958Z" fill="white" stroke="#2E353A" stroke-width="0.314133" stroke-linecap="round" stroke-linejoin="round"/>
<path d="M58.9803 103.293C59.44 107.474 61.1291 111.425 63.8341 114.645C66.539 117.866 70.1384 120.213 74.1769 121.388C78.2154 122.563 82.5117 122.514 86.5225 121.247C90.5332 119.981 94.0783 117.553 96.7093 114.271C99.3404 110.99 100.939 107.002 101.304 102.812C101.668 98.6215 100.782 94.4173 98.7567 90.7309C96.7317 87.0444 93.659 84.0413 89.9271 82.1012C86.1952 80.1611 81.9719 79.3713 77.7911 79.8316H77.7409C72.1445 80.461 67.0264 83.2847 63.5093 87.683C59.9922 92.0814 58.3634 97.6953 58.9803 103.293ZM97.0182 99.0658C97.392 102.42 96.7626 105.811 95.2097 108.808C93.6568 111.805 91.2501 114.274 88.2939 115.903C85.3377 117.532 81.9648 118.248 78.6017 117.961C75.2386 117.673 72.0363 116.394 69.3998 114.287C66.7632 112.179 64.8109 109.337 63.7896 106.12C62.7683 102.903 62.7239 99.4548 63.662 96.2124C64.6001 92.97 66.4786 90.0786 69.06 87.9038C71.6414 85.7289 74.8097 84.3684 78.1643 83.9942C82.6628 83.4943 87.1757 84.8011 90.7111 87.6273C94.2465 90.4534 96.515 94.5677 97.0182 99.0658Z" fill="white" stroke="#2E353A" stroke-width="0.314133" stroke-linecap="round" stroke-linejoin="round"/>
<path d="M57.739 103.422C58.2029 107.6 59.8952 111.547 62.6019 114.764C65.3087 117.98 68.9083 120.322 72.9458 121.493C76.9833 122.664 81.2773 122.612 85.285 121.342C89.2927 120.073 92.8341 117.644 95.4616 114.363C98.0891 111.081 99.6846 107.094 100.046 102.906C100.408 98.7179 99.5203 94.5164 97.4946 90.8327C95.4689 87.1491 92.3966 84.1488 88.6659 82.2111C84.9353 80.2734 80.7139 79.4853 76.5354 79.9464C73.7594 80.2528 71.071 81.1031 68.6238 82.4489C66.1765 83.7947 64.0185 85.6095 62.2729 87.7896C60.5273 89.9697 59.2284 92.4725 58.4505 95.1548C57.6725 97.8371 57.4308 100.646 57.739 103.422ZM95.8342 99.2093C96.2068 102.563 95.5766 105.951 94.0233 108.947C92.47 111.942 90.0634 114.409 87.1078 116.037C84.1523 117.664 80.7804 118.379 77.4188 118.09C74.0571 117.801 70.8566 116.522 68.2219 114.414C65.5872 112.307 63.6367 109.465 62.617 106.249C61.5973 103.032 61.5543 99.5859 62.4933 96.3451C63.4323 93.1044 65.3113 90.2149 67.8925 88.042C70.4737 85.8691 73.6413 84.5104 76.9947 84.1377C79.2214 83.8903 81.4749 84.0839 83.6268 84.7074C85.7786 85.3309 87.7866 86.3721 89.536 87.7717C91.2854 89.1712 92.742 90.9016 93.8227 92.8641C94.9033 94.8266 95.5869 96.9827 95.8342 99.2093Z" fill="white" stroke="#2E353A" stroke-width="0.314133" stroke-linecap="round" stroke-linejoin="round"/>
<path d="M116.976 94.1395L102.238 95.7717C101.104 95.8974 100.286 96.919 100.411 98.0537L100.523 99.0595C100.648 100.194 101.67 101.012 102.805 100.886L117.542 99.2541C118.677 99.1284 119.495 98.1068 119.369 96.9722L119.258 95.9664C119.132 94.8317 118.11 94.0138 116.976 94.1395Z" fill="#1B70E5" stroke="#2E353A" stroke-width="0.314133" stroke-linecap="round" stroke-linejoin="round"/>
<path d="M112.707 98.377L112.47 96.2239C112.368 95.2912 112.64 94.3559 113.227 93.6238C113.813 92.8916 114.667 92.4225 115.6 92.3196L144.738 89.0972C145.331 89.0283 145.931 89.0772 146.505 89.241C147.078 89.4048 147.614 89.6804 148.081 90.0519C148.548 90.4233 148.936 90.8834 149.225 91.4056C149.513 91.9278 149.696 92.5018 149.762 93.0947V93.2383C149.831 93.8309 149.782 94.4313 149.618 95.0049C149.454 95.5786 149.179 96.1142 148.807 96.581C148.436 97.0479 147.976 97.4367 147.454 97.7252C146.931 98.0137 146.357 98.1962 145.764 98.2622L116.626 101.485C115.695 101.59 114.76 101.322 114.025 100.739C113.291 100.157 112.817 99.3077 112.707 98.377Z" fill="#2E353A" stroke="#2E353A" stroke-width="0.314133" stroke-linecap="round" stroke-linejoin="round"/>
<path d="M136.987 95.2477C136.987 95.2477 137.181 100.343 138.056 101.061C138.932 101.779 142.018 101.65 142.363 100.264C143.296 96.7405 142.75 89.2262 142.119 88.9392C141.487 88.6521 137.812 88.0349 137.425 89.5923C137.136 91.4636 136.989 93.3542 136.987 95.2477Z" fill="white" stroke="#2E353A" stroke-width="0.314133" stroke-linecap="round" stroke-linejoin="round"/>
<path d="M129.874 96.712C129.874 96.712 129.645 102.647 130.714 103.573C131.784 104.499 135.781 104.686 136.384 103.114C137.92 99.1234 137.317 90.1451 136.528 89.7432C135.738 89.3413 131.64 88.4441 130.98 90.2025C130.319 91.9608 129.874 96.712 129.874 96.712Z" fill="white" stroke="#2E353A" stroke-width="0.314133" stroke-linecap="round" stroke-linejoin="round"/>
<path d="M121.836 97.5804C121.836 97.5804 121.592 103.925 122.733 104.915C123.875 105.906 128.152 106.099 128.798 104.42C130.434 100.157 130.434 90.7838 129.587 90.3532C128.741 89.9226 123.724 88.7384 123.021 90.6187C122.317 92.4991 121.836 97.5804 121.836 97.5804Z" fill="white" stroke="#2E353A" stroke-width="0.314133" stroke-linecap="round" stroke-linejoin="round"/>
<path d="M114.315 101.233C114.315 101.233 114.071 107.578 115.219 108.568C116.368 109.558 120.76 109.795 121.277 108.073C121.794 106.35 122.913 94.4366 122.066 93.9988C121.219 93.561 116.21 92.3911 115.499 94.2715C114.789 96.1519 114.315 101.233 114.315 101.233Z" fill="white" stroke="#2E353A" stroke-width="0.314133" stroke-linecap="round" stroke-linejoin="round"/>
<path d="M135.86 75.5828C136.152 78.4098 135.474 81.2522 133.936 83.6425C130.42 88.7525 122.317 88.573 122.317 88.573L121.965 89.8075C121.582 90.8203 121.048 91.769 120.379 92.6208C122.054 92.2098 123.766 91.9694 125.489 91.9032C126.432 91.9305 127.331 92.3056 128.013 92.9562C128.695 93.6068 129.113 94.4869 129.185 95.427C129.365 97.0131 129.537 97.7165 127.427 98.2404C125.317 98.7643 116.862 101.413 115.628 101.592C114.508 101.75 112.513 99.8696 112.04 96.8768C112.42 92.2764 113.705 87.7333 113.705 83.1042C113.855 81.4886 114.424 79.94 115.355 78.6114" fill="white"/>
<path d="M135.86 75.5828C136.152 78.4098 135.474 81.2522 133.936 83.6425C130.42 88.7525 122.317 88.573 122.317 88.573L121.965 89.8075C121.582 90.8203 121.048 91.769 120.379 92.6208C122.054 92.2098 123.766 91.9694 125.489 91.9032C126.432 91.9305 127.331 92.3056 128.013 92.9562C128.695 93.6068 129.113 94.4869 129.185 95.427C129.365 97.0131 129.537 97.7165 127.427 98.2404C125.317 98.7643 116.862 101.413 115.628 101.592C114.508 101.75 112.513 99.8696 112.04 96.8768C112.42 92.2763 113.705 87.7333 113.705 83.1042C113.855 81.4886 114.424 79.94 115.355 78.6114" stroke="#2E353A" stroke-width="0.314133" stroke-linecap="round" stroke-linejoin="round"/>
<path d="M135.171 71.8511C135.384 72.5225 135.547 73.2085 135.659 73.9037L135.171 71.8511Z" fill="white"/>
<path d="M135.171 71.8511C135.384 72.5225 135.547 73.2085 135.659 73.9037" stroke="#2E353A" stroke-width="0.314133" stroke-linecap="round" stroke-linejoin="round"/>
<path d="M132.881 65.5067V59.1694" stroke="#2E353A" stroke-width="0.314133" stroke-linecap="round" stroke-linejoin="round"/>
<path d="M134.64 64.9827V62.3416" stroke="#2E353A" stroke-width="0.314133" stroke-linecap="round" stroke-linejoin="round"/>
<path d="M122.317 88.5731C122.317 88.5731 122.317 85.0708 120.229 82.7742" stroke="#2E353A" stroke-width="0.314133" stroke-linecap="round" stroke-linejoin="round"/>
<path d="M120.157 92.7073C119.201 92.8058 118.258 93.003 117.343 93.2958" stroke="#2E353A" stroke-width="0.314133" stroke-linecap="round" stroke-linejoin="round"/>
<path d="M126.53 98.262C126.53 98.262 124.679 98.9295 124.011 98.1113C123.344 97.2931 122.382 95.1472 123.121 94.7812C123.86 94.4152 127.27 93.597 127.937 93.8195L128.604 94.0348" stroke="#2E353A" stroke-width="0.157067" stroke-linecap="round" stroke-linejoin="round"/>
<path d="M148.987 1V61.6811H119.152V1" fill="#1B70E5"/>
<path d="M148.987 1V61.6811H119.152V1" stroke="#2E353A" stroke-width="0.314133" stroke-linecap="round" stroke-linejoin="round"/>
<path d="M145.621 58.5952C146.374 58.5952 146.985 57.9846 146.985 57.2315C146.985 56.4784 146.374 55.8679 145.621 55.8679C144.868 55.8679 144.257 56.4784 144.257 57.2315C144.257 57.9846 144.868 58.5952 145.621 58.5952Z" fill="white" stroke="#2E353A" stroke-width="0.314133" stroke-linecap="round" stroke-linejoin="round"/>
<path d="M109.937 206.146C109.728 206.667 109.417 207.14 109.021 207.537C108.625 207.934 108.153 208.247 107.633 208.457C106.822 208.794 105.745 208.715 104.489 209.419C101.676 211.005 94.6355 209.598 89.5255 210.136C84.4155 210.675 77.5543 205.034 77.5543 205.034L57.2866 206.146V186.051C57.2866 186.051 78.4156 186.933 82.9945 185.175C87.5734 183.417 92.6762 179.713 94.9656 179.893C97.2551 180.072 116.095 182.182 116.095 182.182L109.937 206.146Z" fill="white" stroke="#2E353A" stroke-width="0.314133" stroke-linecap="round" stroke-linejoin="round"/>
<path d="M115.141 125.161C119.321 125.624 123.27 127.316 126.489 130.023C129.708 132.731 132.051 136.331 133.224 140.371C134.396 144.41 134.344 148.706 133.075 152.716C131.805 156.726 129.375 160.269 126.092 162.898C122.809 165.526 118.82 167.122 114.63 167.484C110.439 167.846 106.236 166.957 102.551 164.929C98.8658 162.902 95.8647 159.828 93.927 156.095C91.9893 152.362 91.202 148.138 91.6648 143.958C92.2853 138.354 95.1065 133.226 99.5077 129.703C103.909 126.179 109.53 124.548 115.133 125.169L115.141 125.161ZM110.921 163.257C114.275 163.63 117.665 163.001 120.662 161.448C123.659 159.895 126.128 157.489 127.758 154.532C129.387 151.576 130.103 148.203 129.815 144.84C129.528 141.477 128.249 138.275 126.141 135.638C124.034 133.002 121.192 131.049 117.975 130.028C114.757 129.007 111.31 128.962 108.067 129.9C104.825 130.839 101.933 132.717 99.7585 135.298C97.5837 137.88 96.2231 141.048 95.8489 144.403C95.3491 148.901 96.6558 153.414 99.482 156.95C102.308 160.485 106.422 162.753 110.921 163.257Z" fill="white" stroke="#2E353A" stroke-width="0.314133" stroke-linecap="round" stroke-linejoin="round"/>
<path d="M115.269 123.948C119.448 124.412 123.395 126.105 126.611 128.812C129.828 131.519 132.17 135.119 133.34 139.157C134.511 143.195 134.458 147.489 133.188 151.497C131.918 155.505 129.489 159.046 126.206 161.673C122.924 164.3 118.936 165.895 114.748 166.256C110.559 166.617 106.358 165.728 102.674 163.701C98.991 161.674 95.9913 158.601 94.0546 154.87C92.1179 151.138 91.3311 146.916 91.7936 142.738C92.1009 139.962 92.9519 137.275 94.298 134.828C95.6442 132.382 97.4591 130.224 99.6391 128.48C101.819 126.735 104.322 125.437 107.004 124.659C109.685 123.882 112.494 123.64 115.269 123.948ZM111.049 162.044C114.404 162.417 117.794 161.788 120.791 160.235C123.788 158.682 126.257 156.276 127.887 153.319C129.516 150.363 130.232 146.99 129.944 143.627C129.656 140.264 128.378 137.062 126.27 134.425C124.163 131.789 121.321 129.836 118.103 128.815C114.886 127.794 111.438 127.749 108.196 128.687C104.954 129.625 102.062 131.504 99.8873 134.085C97.7125 136.667 96.352 139.835 95.9778 143.19C95.48 147.686 96.7879 152.196 99.614 155.729C102.44 159.262 106.553 161.528 111.049 162.029V162.044Z" fill="white" stroke="#2E353A" stroke-width="0.314133" stroke-linecap="round" stroke-linejoin="round"/>
<path d="M107.603 168.443L105.97 183.18C105.845 184.315 106.663 185.337 107.797 185.462L108.803 185.574C109.938 185.699 110.959 184.882 111.085 183.747L112.717 169.009C112.843 167.875 112.025 166.853 110.89 166.728L109.885 166.616C108.75 166.49 107.728 167.308 107.603 168.443Z" fill="#1B70E5" stroke="#2E353A" stroke-width="0.314133" stroke-linecap="round" stroke-linejoin="round"/>
<path d="M105.107 215.95H104.963C104.37 215.885 103.795 215.703 103.272 215.415C102.75 215.126 102.289 214.737 101.918 214.27C101.546 213.803 101.271 213.267 101.107 212.693C100.944 212.119 100.896 211.519 100.965 210.926L104.188 181.787C104.238 181.325 104.379 180.877 104.602 180.47C104.826 180.062 105.127 179.703 105.49 179.412C105.853 179.121 106.269 178.905 106.716 178.776C107.162 178.646 107.63 178.606 108.092 178.658L110.245 178.895C111.178 178.998 112.031 179.467 112.618 180.199C113.205 180.931 113.477 181.867 113.374 182.799L110.152 211.974C110.085 212.566 109.902 213.14 109.613 213.661C109.324 214.183 108.936 214.643 108.469 215.014C108.002 215.385 107.467 215.661 106.894 215.825C106.321 215.99 105.72 216.039 105.128 215.971L105.107 215.95Z" fill="#2E353A" stroke="#2E353A" stroke-width="0.314133" stroke-linecap="round" stroke-linejoin="round"/>
<path d="M107.066 203.196C107.066 203.196 112.161 203.39 112.879 204.266C113.597 205.141 113.468 208.22 112.083 208.572C108.559 209.505 101.044 208.959 100.757 208.328C100.47 207.696 99.853 204.022 101.41 203.627C103.282 203.34 105.172 203.196 107.066 203.196Z" fill="white" stroke="#2E353A" stroke-width="0.314133" stroke-linecap="round" stroke-linejoin="round"/>
<path d="M108.559 196.098C108.559 196.098 114.494 195.869 115.42 196.938C116.346 198.007 116.533 202.005 114.961 202.608C110.97 204.137 101.992 203.541 101.59 202.751C101.188 201.962 100.291 197.864 102.049 197.204C103.808 196.543 108.559 196.098 108.559 196.098Z" fill="white" stroke="#2E353A" stroke-width="0.314133" stroke-linecap="round" stroke-linejoin="round"/>
<path d="M109.428 188.038C109.428 188.038 115.772 187.802 116.763 188.943C117.753 190.084 117.947 194.361 116.275 195C111.968 196.644 102.638 196.636 102.201 195.797C101.763 194.957 100.586 189.933 102.466 189.223C104.346 188.512 109.428 188.038 109.428 188.038Z" fill="white" stroke="#2E353A" stroke-width="0.314133" stroke-linecap="round" stroke-linejoin="round"/>
<path d="M113.081 180.524C113.081 180.524 119.425 180.28 120.415 181.421C121.406 182.563 121.643 186.969 119.92 187.486C118.198 188.003 106.284 189.115 105.846 188.275C105.408 187.436 104.239 182.412 106.119 181.709C107.999 181.005 113.081 180.524 113.081 180.524Z" fill="white" stroke="#2E353A" stroke-width="0.314133" stroke-linecap="round" stroke-linejoin="round"/>
<path d="M88.4065 202.105C90.9094 202.204 93.3807 201.519 95.4758 200.146C100.586 196.622 100.406 188.526 100.406 188.526L101.641 188.175C102.654 187.792 103.602 187.257 104.454 186.589C104.043 188.261 103.803 189.971 103.736 191.691C103.764 192.635 104.139 193.535 104.789 194.218C105.439 194.902 106.32 195.321 107.26 195.395C108.846 195.567 109.55 195.746 110.081 193.629C110.612 191.512 113.246 183.065 113.425 181.837C113.605 180.61 111.703 178.716 108.71 178.249C104.11 178.629 99.5667 179.914 94.9375 179.914C93.3231 180.065 91.7753 180.631 90.4447 181.558" fill="white"/>
<path d="M88.4065 202.105C90.9094 202.204 93.3807 201.519 95.4758 200.146C100.586 196.622 100.406 188.526 100.406 188.526L101.641 188.175C102.654 187.792 103.602 187.257 104.454 186.589C104.043 188.261 103.803 189.971 103.736 191.691C103.764 192.635 104.139 193.535 104.789 194.218C105.439 194.902 106.32 195.321 107.26 195.395C108.846 195.567 109.55 195.746 110.081 193.629C110.612 191.512 113.246 183.065 113.425 181.837C113.605 180.61 111.703 178.716 108.71 178.249C104.11 178.629 99.5667 179.914 94.9375 179.914C93.3231 180.065 91.7753 180.631 90.4447 181.558" stroke="#2E353A" stroke-width="0.314133" stroke-linecap="round" stroke-linejoin="round"/>
<path d="M83.6985 201.381C84.7019 201.689 85.7331 201.898 86.7774 202.005L83.6985 201.381Z" fill="white"/>
<path d="M83.6985 201.381C84.7019 201.689 85.7331 201.898 86.7774 202.005" stroke="#2E353A" stroke-width="0.314133" stroke-linecap="round" stroke-linejoin="round"/>
<path d="M77.3534 199.091H71.0161" stroke="#2E353A" stroke-width="0.314133" stroke-linecap="round" stroke-linejoin="round"/>
<path d="M76.8293 200.849H74.1882" stroke="#2E353A" stroke-width="0.314133" stroke-linecap="round" stroke-linejoin="round"/>
<path d="M100.42 188.526C100.42 188.526 96.918 188.526 94.6213 186.438" stroke="#2E353A" stroke-width="0.314133" stroke-linecap="round" stroke-linejoin="round"/>
<path d="M104.554 186.359C104.652 185.403 104.85 184.461 105.142 183.546" stroke="#2E353A" stroke-width="0.314133" stroke-linecap="round" stroke-linejoin="round"/>
<path d="M110.109 192.732C110.109 192.732 110.776 190.881 109.958 190.213C109.14 189.546 106.994 188.584 106.628 189.323C106.262 190.062 105.444 193.479 105.666 194.139L105.889 194.806" stroke="#2E353A" stroke-width="0.157067" stroke-linecap="round" stroke-linejoin="round"/>
<path d="M12.8472 215.196H73.5283V185.362H12.8472" fill="#1B70E5"/>
<path d="M12.8472 215.196H73.5283V185.362H12.8472" stroke="#2E353A" stroke-width="0.314133" stroke-linecap="round" stroke-linejoin="round"/>
<path d="M67.7153 211.83C67.7153 212.1 67.7953 212.363 67.9451 212.588C68.095 212.812 68.3079 212.987 68.5571 213.09C68.8063 213.193 69.0805 213.22 69.345 213.167C69.6095 213.115 69.8525 212.985 70.0432 212.794C70.2339 212.603 70.3638 212.36 70.4164 212.096C70.469 211.831 70.442 211.557 70.3388 211.308C70.2356 211.059 70.0608 210.846 69.8365 210.696C69.6123 210.546 69.3487 210.466 69.079 210.466C68.7173 210.466 68.3705 210.61 68.1147 210.866C67.859 211.121 67.7153 211.468 67.7153 211.83Z" fill="white" stroke="#2E353A" stroke-width="0.314133" stroke-linecap="round" stroke-linejoin="round"/>
</svg>
