<svg className="logo  w-28 h-12 absolute top-14 left-2/4  transform -translate-y-1/2 -translate-x-2/4 " viewBox="0 0 107 53" fill="none" xmlns="http://www.w3.org/2000/svg">
<path d="M0 41.28V11.3736C0 9.37218 0.442456 7.58242 1.32737 6.00436C2.25075 4.3878 3.50117 3.13689 5.07862 2.25163C6.69455 1.32789 8.50284 0.866012 10.5035 0.866012H24.8737V5.77342H11.1383C9.44547 5.77342 8.07962 6.31227 7.04082 7.38998C6.04048 8.42919 5.54031 9.75708 5.54031 11.3736V19.5719H22.7384V24.4793H5.54031V41.28H0Z" fill="#1B70E5"/>
<path d="M31.1156 41.28V11.8355H36.4827V41.28H31.1156ZM33.828 7.15904C32.8277 7.15904 31.9812 6.81264 31.2887 6.11983C30.5962 5.38853 30.2499 4.54176 30.2499 3.57952C30.2499 2.61728 30.5962 1.78976 31.2887 1.09695C31.9812 0.36565 32.8277 0 33.828 0C34.7899 0 35.6171 0.36565 36.3096 1.09695C37.0406 1.78976 37.4061 2.61728 37.4061 3.57952C37.4061 4.54176 37.0406 5.38853 36.3096 6.11983C35.6171 6.81264 34.7899 7.15904 33.828 7.15904Z" fill="#1B70E5"/>
<path d="M43.1358 41.28L53.2353 27.7124C50.5037 26.8272 48.2914 25.3068 46.5985 23.1514C44.9056 20.9575 44.0592 18.4942 44.0592 15.7614V11.8355H49.4264V15.7614C49.4264 17.1855 49.7919 18.4942 50.5229 19.6874C51.2539 20.8805 52.2158 21.862 53.4085 22.6318C54.6397 23.3631 55.9863 23.8057 57.4483 23.9597L66.3359 11.8355H72.2225L62.6423 24.8257C65.6049 25.711 67.971 27.289 69.7409 29.5599C71.5107 31.7923 72.3956 34.3711 72.3956 37.2963V41.28H67.0861V37.2963C67.0861 35.7567 66.7014 34.3711 65.9319 33.1394C65.1624 31.8693 64.1236 30.8493 62.8155 30.0795C61.5073 29.2712 60.0068 28.7901 58.314 28.6362L49.0801 41.28H43.1358Z" fill="#1B70E5"/>
<path d="M90.6099 53V41.7418C88.4553 41.4339 86.5316 40.7026 84.8387 39.5479C83.1843 38.3932 81.8762 36.9114 80.9144 35.1024C79.9525 33.2934 79.4716 31.215 79.4716 28.8671V11.8355H84.8387V28.8094C84.8387 30.5799 85.2235 32.1195 85.993 33.4281C86.8009 34.6983 87.8398 35.6797 89.1094 36.3725C90.3791 37.0654 91.7449 37.4118 93.2069 37.4118C94.7074 37.4118 96.0925 37.0654 97.3622 36.3725C98.6703 35.6797 99.7091 34.6983 100.479 33.4281C101.287 32.1195 101.691 30.5799 101.691 28.8094V11.8355H107V28.8671C107 31.215 106.519 33.2934 105.557 35.1024C104.634 36.9114 103.326 38.3932 101.633 39.5479C99.9784 40.6641 98.0739 41.3954 95.9194 41.7418V53H90.6099Z" fill="#1B70E5"/>
</svg>



